<?xml version="1.0" encoding="utf-8"?>
<!-- Generator: Adobe Illustrator 20.1.0, SVG Export Plug-In . SVG Version: 6.00 Build 0)  -->
<svg version="1.1" id="Layer_1" xmlns="http://www.w3.org/2000/svg" xmlns:xlink="http://www.w3.org/1999/xlink" x="0px" y="0px"
	 viewBox="0 0 140 140" style="enable-background:new 0 0 140 140;" xml:space="preserve">
<style type="text/css">
	.st0{fill:#FFFFFF;}
	.st1{display:none;fill:#FFFFFF;}
</style>
<path class="st0" d="M70,0.5C31.6,0.5,0.5,31.6,0.5,70s31.1,69.5,69.5,69.5s69.5-31.1,69.5-69.5S108.4,0.5,70,0.5z M85.7,49.2H73.6
	c-0.7,0-1.2,0.2-1.7,0.7c-0.5,0.5-0.7,1-0.7,1.7v7.3h13.3L82,68.5H71.1v33.9h-9.7V68.5h-9.7v-9.7h9.7v-7.3c0-3.3,1.2-6.2,3.6-8.6
	c2.4-2.4,5.2-3.6,8.6-3.6h12.1V49.2z"/>
<path class="st1" d="M70,0.5C31.6,0.5,0.5,31.6,0.5,70s31.1,69.5,69.5,69.5s69.5-31.1,69.5-69.5S108.4,0.5,70,0.5z M56.9,91.5H45.5
	V54.7h11.3V91.5z M55.4,50.1c-1,1.1-2.4,1.7-4.2,1.7c-1.7,0-3.1-0.5-4.1-1.6c-1-1.1-1.5-2.4-1.5-3.9c0-1.5,0.5-2.9,1.5-4
	c1-1.2,2.4-1.8,4.2-1.8c1.7,0,3.1,0.6,4.1,1.7c1,1.1,1.5,2.5,1.5,4C56.9,47.7,56.4,49,55.4,50.1z M96.5,91.5H85.1V72.1
	c0-2.2-0.5-4.1-1.4-5.7c-0.9-1.5-2.3-2.3-4.3-2.3c-1.5,0-2.7,0.5-3.5,1.5c-0.8,1-1.4,2-1.8,3c-0.1,0.4-0.2,0.8-0.3,1.3
	c-0.1,0.5-0.1,1-0.1,1.4v20.2H62.5V67.3c0-2.2,0-4.2-0.1-6.1c-0.1-1.9-0.1-3.6-0.2-5.1h10.2l0.5,4.9h0.2c0.7-1.1,2-2.4,3.8-3.7
	c1.8-1.3,4.1-2,7.1-2c1.8,0,3.4,0.3,5,0.9c1.5,0.6,2.9,1.5,4,2.8c1.1,1.3,2,2.8,2.6,4.7c0.6,1.9,1,4.1,1,6.7V91.5z"/>
<path class="st1" d="M70,0.5C31.6,0.5,0.5,31.6,0.5,70s31.1,69.5,69.5,69.5s69.5-31.1,69.5-69.5S108.4,0.5,70,0.5z M100.2,56.9
	c-1,1.1-2.2,2-3.3,2.9c0,0.3,0,0.5,0,0.8c0,0.3,0,0.5,0,0.8c0,4.1-0.8,8.2-2.3,12.4c-1.5,4.2-3.8,7.9-6.7,11.3
	c-3,3.4-6.6,6.1-11,8.2c-4.4,2.1-9.4,3.2-15.1,3.2c-3.5,0-6.8-0.5-10-1.5c-3.2-1-6.1-2.3-8.9-4.1c0.5,0,0.9,0.1,1.4,0.1
	c0.5,0,1,0.1,1.5,0.1c2.9,0,5.6-0.5,8.2-1.4c2.6-0.9,4.9-2.2,7.1-3.9c-2.7,0-5.1-0.9-7.2-2.5c-2.1-1.6-3.5-3.6-4.3-6.1
	c0.3,0.1,0.7,0.1,1.1,0.2c0.4,0,0.8,0,1.2,0c0.6,0,1.1,0,1.7-0.1c0.6-0.1,1.1-0.2,1.6-0.3c-2.8-0.6-5.1-2-7-4.3
	c-1.9-2.3-2.8-4.9-2.8-7.8c0,0,0-0.1,0-0.1c0.8,0.4,1.7,0.8,2.6,1.1c1,0.3,1.9,0.4,2.9,0.5c-1.7-1.1-3-2.6-4-4.4
	c-1-1.8-1.5-3.8-1.5-5.9c0-1.1,0.1-2.2,0.4-3.3c0.3-1,0.7-2,1.3-2.9c1.5,1.9,3.2,3.6,5.1,5.1c1.9,1.5,3.9,2.8,6.1,3.9
	c2.1,1.1,4.4,2,6.8,2.7c2.4,0.7,4.9,1.1,7.4,1.2c-0.1-0.5-0.2-0.9-0.3-1.4c0-0.5-0.1-0.9-0.1-1.4c0-1.7,0.3-3.3,1-4.8
	c0.6-1.5,1.5-2.8,2.6-3.9c1.1-1.1,2.4-2,3.9-2.6c1.5-0.7,3.1-1,4.8-1c1.8,0,3.4,0.4,5,1.1c1.5,0.7,2.9,1.6,4,2.8
	c1.4-0.3,2.8-0.6,4.1-1.1c1.3-0.5,2.6-1.1,3.8-1.8c-0.5,1.4-1.2,2.7-2.1,3.9c-0.9,1.2-2,2.1-3.3,2.9c1.2-0.1,2.4-0.4,3.6-0.7
	c1.2-0.3,2.3-0.7,3.4-1.2C102.2,54.6,101.3,55.8,100.2,56.9z"/>
</svg>
